<mxfile modified="2020-04-09T19:18:53.155Z" host="app.diagrams.net" agent="5.0 (Windows NT 10.0; Win64; x64) AppleWebKit/537.36 (KHTML, like Gecko) Chrome/80.0.3987.149 Safari/537.36" etag="AXI009HMWfKgNsrsHizV" version="12.9.9" type="github">
  <diagram id="Ht1M8jgEwFfnCIfOTk4-" name="Page-1">
    <mxGraphModel dx="727" dy="1696" grid="1" gridSize="10" guides="1" tooltips="1" connect="1" arrows="1" fold="1" page="1" pageScale="1" pageWidth="1169" pageHeight="827" math="0" shadow="0">
      <root>
        <mxCell id="0" />
        <mxCell id="1" parent="0" />
        <mxCell id="QKLWtCtMvJlHInnlzFwb-16" value="Виртуальные сервера" style="rounded=0;whiteSpace=wrap;html=1;dashed=1;align=center;verticalAlign=top;" vertex="1" parent="1">
          <mxGeometry x="40" y="-800" width="340" height="510" as="geometry" />
        </mxCell>
        <mxCell id="QKLWtCtMvJlHInnlzFwb-18" value="ud-virt-s-v74-01&lt;br&gt;10.3.74.10&lt;br&gt;K8S" style="rounded=1;whiteSpace=wrap;html=1;dashed=1;align=center;verticalAlign=top;fillColor=#dae8fc;strokeColor=#6c8ebf;" vertex="1" parent="1">
          <mxGeometry x="60" y="-760" width="120" height="60" as="geometry" />
        </mxCell>
        <mxCell id="QKLWtCtMvJlHInnlzFwb-19" value="ud-virt-s-v74-02&lt;br&gt;10.3.74.11&lt;br&gt;K8S" style="rounded=1;whiteSpace=wrap;html=1;dashed=1;align=center;verticalAlign=top;fillColor=#dae8fc;strokeColor=#6c8ebf;" vertex="1" parent="1">
          <mxGeometry x="60" y="-680" width="120" height="60" as="geometry" />
        </mxCell>
        <mxCell id="QKLWtCtMvJlHInnlzFwb-20" value="ud-virt-s-v74-03&lt;br&gt;10.3.74.12&lt;br&gt;K8S" style="rounded=1;whiteSpace=wrap;html=1;dashed=1;align=center;verticalAlign=top;fillColor=#dae8fc;strokeColor=#6c8ebf;" vertex="1" parent="1">
          <mxGeometry x="60" y="-600" width="120" height="60" as="geometry" />
        </mxCell>
      </root>
    </mxGraphModel>
  </diagram>
</mxfile>
